<svg id="图层_1" data-name="图层 1" xmlns="http://www.w3.org/2000/svg" viewBox="0 0 128 128"><path d="M64,2A62,62,0,1,1,2,64,62.07,62.07,0,0,1,64,2m0-2a64,64,0,1,0,64,64A64,64,0,0,0,64,0Z" fill="#f94974"/><path d="M64,77A20.63,20.63,0,0,1,44.14,61.83H39.65a24.94,24.94,0,0,0,48.7,0H83.86A20.63,20.63,0,0,1,64,77Z" fill="none" stroke="#f94974" stroke-miterlimit="10" stroke-width="2"/><rect x="61.83" y="77.02" width="4.34" height="18.44" rx="2.17" fill="none" stroke="#f94974" stroke-miterlimit="10" stroke-width="2"/><path d="M64,32.54a13.06,13.06,0,0,0-13,13V57.49a13,13,0,0,0,26,0V45.56A13.06,13.06,0,0,0,64,32.54Zm5.42,23.87H58.58a1.09,1.09,0,1,1,0-2.17H69.42a1.09,1.09,0,1,1,0,2.17Zm0-6.51H58.58a1.09,1.09,0,1,1,0-2.17H69.42a1.09,1.09,0,1,1,0,2.17Zm0-6.51H58.58a1.09,1.09,0,1,1,0-2.17H69.42a1.09,1.09,0,1,1,0,2.17Z" fill="none" stroke="#f94974" stroke-miterlimit="10" stroke-width="2"/><circle cx="64" cy="64" r="59" fill="#f94974"/><path d="M64,76A19,19,0,0,1,45.69,62H41.55a23,23,0,0,0,44.9,0H82.31A19,19,0,0,1,64,76Z" fill="#fff"/><rect x="62" y="76" width="4" height="17" rx="2" fill="#fff"/><path d="M64,35A12,12,0,0,0,52,47V58a12,12,0,0,0,24,0V47A12,12,0,0,0,64,35Zm5,22H59a1,1,0,0,1,0-2H69a1,1,0,0,1,0,2Zm0-6H59a1,1,0,0,1,0-2H69a1,1,0,0,1,0,2Zm0-6H59a1,1,0,0,1,0-2H69a1,1,0,0,1,0,2Z" fill="#fff"/></svg>