<svg id="图层_1" data-name="图层 1" xmlns="http://www.w3.org/2000/svg" viewBox="0 0 24 24"><path d="M12,2A10,10,0,1,1,2,12,10,10,0,0,1,12,2m0-1A11,11,0,1,0,23,12,11,11,0,0,0,12,1Z" fill="#f94974"/><path d="M12,14.24a3.54,3.54,0,0,1-3.41-2.61H7.81a4.3,4.3,0,0,0,8.38,0h-.78A3.54,3.54,0,0,1,12,14.24Z" fill="none" stroke="#f94974" stroke-miterlimit="10"/><rect x="11.63" y="14.24" width="0.75" height="3.17" rx="0.37" fill="none" stroke="#f94974" stroke-miterlimit="10"/><path d="M12,6.59A2.25,2.25,0,0,0,9.76,8.83v2.05a2.24,2.24,0,1,0,4.48,0V8.83A2.25,2.25,0,0,0,12,6.59Zm.93,4.1H11.07a.19.19,0,0,1-.19-.18.2.2,0,0,1,.19-.19h1.86a.2.2,0,0,1,.19.19A.19.19,0,0,1,12.93,10.69Zm0-1.11H11.07a.19.19,0,0,1,0-.38h1.86a.19.19,0,1,1,0,.38Zm0-1.12H11.07a.19.19,0,0,1,0-.38h1.86a.19.19,0,0,1,0,.38Z" fill="none" stroke="#f94974" stroke-miterlimit="10"/><circle cx="12" cy="12" r="9.22" fill="#f94974"/><path d="M12,14.48a3.94,3.94,0,0,1-3.79-2.89H7.36a4.75,4.75,0,0,0,9.28,0h-.85A3.94,3.94,0,0,1,12,14.48Z" fill="#fff"/><rect x="11.59" y="14.48" width="0.83" height="3.52" rx="0.41" fill="#fff"/><path d="M12,6A2.49,2.49,0,0,0,9.52,8.48v2.28a2.48,2.48,0,0,0,5,0V8.48A2.49,2.49,0,0,0,12,6Zm1,4.55H11a.21.21,0,0,1-.21-.21.2.2,0,0,1,.21-.2H13a.2.2,0,0,1,.21.2A.21.21,0,0,1,13,10.55Zm0-1.24H11a.21.21,0,0,1-.21-.21A.2.2,0,0,1,11,8.9H13a.2.2,0,0,1,.21.2A.21.21,0,0,1,13,9.31Zm0-1.24H11a.21.21,0,0,1-.21-.21.2.2,0,0,1,.21-.2H13a.2.2,0,0,1,.21.2A.21.21,0,0,1,13,8.07Z" fill="#fff"/></svg>