<svg id="图层_1" data-name="图层 1" xmlns="http://www.w3.org/2000/svg" xmlns:xlink="http://www.w3.org/1999/xlink" viewBox="0 0 24 24"><defs><linearGradient id="未命名的渐变_17" x1="12" y1="1" x2="12" y2="23" gradientUnits="userSpaceOnUse"><stop offset="0.03" stop-color="#c877fb"/><stop offset="1" stop-color="#f94974"/></linearGradient><linearGradient id="未命名的渐变_29" x1="18.32" y1="15.5" x2="5.68" y2="15.5" gradientUnits="userSpaceOnUse"><stop offset="0.03" stop-color="#fff"/><stop offset="1" stop-color="#e6e6e6"/></linearGradient></defs><circle cx="12" cy="12" r="11" fill="url(#未命名的渐变_17)"/><path d="M12,4a2.73,2.73,0,0,0-.41,0,3.23,3.23,0,0,0-1.72.73A2.35,2.35,0,0,0,9,6.55v3.9A2.81,2.81,0,0,0,12,13a2.73,2.73,0,0,0,.41,0,3.23,3.23,0,0,0,1.72-.73A2.35,2.35,0,0,0,15,10.45V6.55A2.81,2.81,0,0,0,12,4Z" fill="#f2f2f2"/><path d="M11,4.8A2.54,2.54,0,0,1,11.59,4a3.23,3.23,0,0,0-1.72.73l.42,0A3.82,3.82,0,0,1,11,4.8Z" fill="#e6e6e6"/><path d="M13,12.2a2.54,2.54,0,0,1-.62.77,3.23,3.23,0,0,0,1.72-.73l-.42,0A3.82,3.82,0,0,1,13,12.2Z" fill="#e6e6e6"/><path d="M15,6.55A2.81,2.81,0,0,0,12,4a2.73,2.73,0,0,0-.41,0A2.54,2.54,0,0,0,11,4.8a2.7,2.7,0,0,1,2.32,2.48v3.9a2.24,2.24,0,0,1-.26,1,3.82,3.82,0,0,0,.68.07l.42,0A2.35,2.35,0,0,0,15,10.45Z" fill="#ccc"/><path d="M10.71,9.72V5.82a2.24,2.24,0,0,1,.26-1,3.82,3.82,0,0,0-.68-.07l-.42,0A2.35,2.35,0,0,0,9,6.55v3.9A2.81,2.81,0,0,0,12,13a2.73,2.73,0,0,0,.41,0A2.54,2.54,0,0,0,13,12.2,2.7,2.7,0,0,1,10.71,9.72Z" fill="#fff"/><path d="M10.71,9.72A2.7,2.7,0,0,0,13,12.2a2.24,2.24,0,0,0,.26-1V7.28A2.7,2.7,0,0,0,11,4.8a2.24,2.24,0,0,0-.26,1Z" fill="#f2f2f2"/><path d="M18.32,12H17.19A6,6,0,0,1,6.81,12H5.68a7,7,0,0,0,5.82,4V18.5a.5.5,0,0,0,1,0V16A7,7,0,0,0,18.32,12Z" fill="url(#未命名的渐变_29)"/></svg>