<svg id="图层_1" data-name="图层 1" xmlns="http://www.w3.org/2000/svg" xmlns:xlink="http://www.w3.org/1999/xlink" viewBox="0 0 128 128"><defs><linearGradient id="未命名的渐变_17" x1="64" y1="5" x2="64" y2="123" gradientUnits="userSpaceOnUse"><stop offset="0.03" stop-color="#c877fb"/><stop offset="1" stop-color="#f94974"/></linearGradient><linearGradient id="未命名的渐变_29" x1="94.44" y1="75" x2="34.24" y2="75" gradientUnits="userSpaceOnUse"><stop offset="0.03" stop-color="#fff"/><stop offset="1" stop-color="#e6e6e6"/></linearGradient><linearGradient id="未命名的渐变_29-2" x1="95.88" y1="93.5" x2="32.12" y2="93.5" xlink:href="#未命名的渐变_29"/></defs><circle cx="64" cy="64" r="59" fill="url(#未命名的渐变_17)"/><path d="M64,23a15.61,15.61,0,0,0-2.06.15,15.35,15.35,0,0,0-8.57,4.05,13.76,13.76,0,0,0-4.37,10V58.81C49,66.61,55.75,73,64,73a15.61,15.61,0,0,0,2.06-.15,15.35,15.35,0,0,0,8.57-4,13.76,13.76,0,0,0,4.37-10V37.19C79,29.39,72.25,23,64,23Z" fill="#f2f2f2"/><path d="M58.85,27.44a14.36,14.36,0,0,1,3.09-4.29,15.35,15.35,0,0,0-8.57,4.05,17.52,17.52,0,0,1,2.06-.15A16,16,0,0,1,58.85,27.44Z" fill="#e6e6e6"/><path d="M69.15,68.56a14.36,14.36,0,0,1-3.09,4.29,15.35,15.35,0,0,0,8.57-4,17.52,17.52,0,0,1-2.06.15A16,16,0,0,1,69.15,68.56Z" fill="#e6e6e6"/><path d="M79,37.19C79,29.39,72.25,23,64,23a15.61,15.61,0,0,0-2.06.15,14.36,14.36,0,0,0-3.09,4.29c6.61,1.48,11.58,7.11,11.58,13.8V62.86a13.37,13.37,0,0,1-1.28,5.7,16,16,0,0,0,3.42.39,17.52,17.52,0,0,0,2.06-.15,13.76,13.76,0,0,0,4.37-10Z" fill="#ccc"/><path d="M57.57,54.76V33.14a13.37,13.37,0,0,1,1.28-5.7,16,16,0,0,0-3.42-.39,17.52,17.52,0,0,0-2.06.15,13.76,13.76,0,0,0-4.37,10V58.81C49,66.61,55.75,73,64,73a15.61,15.61,0,0,0,2.06-.15,14.36,14.36,0,0,0,3.09-4.29C62.54,67.08,57.57,61.45,57.57,54.76Z" fill="#fff"/><path d="M57.57,54.76c0,6.69,5,12.32,11.58,13.8a13.37,13.37,0,0,0,1.28-5.7V41.24c0-6.69-5-12.32-11.58-13.8a13.37,13.37,0,0,0-1.28,5.7Z" fill="#f2f2f2"/><path d="M94.44,63H88.89a25.44,25.44,0,0,1-49.1,0H34.24A30.86,30.86,0,0,0,61.51,87h5.66A30.85,30.85,0,0,0,94.44,63Z" fill="url(#未命名的渐变_29)"/><rect x="61" y="83" width="6" height="21" rx="3" fill="url(#未命名的渐变_29-2)"/></svg>